<svg width="87" height="87" viewBox="0 0 87 87" fill="none" xmlns="http://www.w3.org/2000/svg">
<g id="Frame 1" clip-path="url(#clip0_0_1)">
<g id="&#240;&#159;&#166;&#134; icon &#34;add&#34;">
<g id="Group">
<path id="Vector" d="M81.4867 47.9333H4.79333C2.17298 47.9333 0 45.7604 0 43.14C0 40.5197 2.17298 38.3467 4.79333 38.3467H81.4867C84.107 38.3467 86.28 40.5197 86.28 43.14C86.28 45.7604 84.107 47.9333 81.4867 47.9333Z" fill="#292D32"/>
<path id="Vector_2" d="M43.14 86.28C40.5196 86.28 38.3467 84.107 38.3467 81.4867V4.79333C38.3467 2.17298 40.5196 0 43.14 0C45.7604 0 47.9333 2.17298 47.9333 4.79333V81.4867C47.9333 84.107 45.7604 86.28 43.14 86.28Z" fill="#292D32"/>
</g>
</g>
</g>
<defs>
<clipPath id="clip0_0_1">
<rect width="87" height="87" fill="white"/>
</clipPath>
</defs>
</svg>
