<svg width="83" height="83" viewBox="0 0 83 83" fill="none" xmlns="http://www.w3.org/2000/svg">
<g id="github">
<g id="&#240;&#159;&#166;&#134; icon &#34;mark github&#34;">
<path id="Vector" fill-rule="evenodd" clip-rule="evenodd" d="M41.49 1C18.5668 1 0 19.5668 0 42.49C0 60.8493 11.8765 76.3562 28.3688 81.8536C30.4433 82.2167 31.2212 80.972 31.2212 79.8829C31.2212 78.8975 31.1694 75.6301 31.1694 72.1554C20.745 74.0743 18.0482 69.6141 17.2184 67.2803C16.7516 66.0874 14.729 62.4052 12.9656 61.4198C11.5135 60.6419 9.43898 58.723 12.9138 58.6711C16.1811 58.6192 18.5149 61.6791 19.2929 62.9238C23.027 69.1992 28.9911 67.4359 31.3768 66.3468C31.7399 63.6499 32.829 61.8347 34.0218 60.7975C24.7903 59.7602 15.1439 56.1817 15.1439 40.3118C15.1439 35.7997 16.7516 32.0656 19.3966 29.1613C18.9817 28.1241 17.5295 23.8714 19.8115 18.1665C19.8115 18.1665 23.2863 17.0774 31.2212 22.4192C34.5404 21.4857 38.0671 21.0189 41.5937 21.0189C45.1204 21.0189 48.647 21.4857 51.9662 22.4192C59.9012 17.0255 63.376 18.1665 63.376 18.1665C65.6579 23.8714 64.2058 28.1241 63.7909 29.1613C66.4359 32.0656 68.0436 35.7479 68.0436 40.3118C68.0436 56.2336 58.3453 59.7602 49.1138 60.7975C50.6178 62.094 51.9144 64.5834 51.9144 68.4731C51.9144 74.0224 51.8625 78.4826 51.8625 79.8829C51.8625 80.972 52.6404 82.2685 54.7149 81.8536C62.9515 79.0731 70.1086 73.7796 75.179 66.7182C80.2495 59.6568 82.9778 51.1832 82.98 42.49C82.98 19.5668 64.4132 1 41.49 1Z" fill="#F5F5F5"/>
</g>
</g>
</svg>
